<svg version="1.2" xmlns="http://www.w3.org/2000/svg" viewBox="0 0 271 227" width="271" height="227">
	<title>SVGLogo-svg</title>
	<style>
		.s0 { fill: #ffffff } 
		.s1 { fill: #f05c21 } 
	</style>
	<g id="g10">
		<g id="g12">
			<path id="path14" fill-rule="evenodd" class="s0" d="m143.4 110.5q2.2 6.4 1.9 9.2-0.2 10.8-7 17.8-6.8 7.1-17.7 7.4-10.8-0.3-17.7-7.4-6.8-7.1-6.9-17.8-0.2-3.1 1.8-9.4 1.9-6.4 10-16.1 7-8.6 10-16.3 2.9-7.6 2.8-8.2 0 0.6 2.8 8 2.7 7.4 9.1 15.8 8.7 10.6 10.9 17z"/>
			<path id="path16" fill-rule="evenodd" class="s1" d="m163.2 95.1q2 8.9 1.3 13.1-2.9 23.5-24.1 34.4 12.5-8.8 14.3-24.3 0.9-2.6-1.3-11.5-2.2-8.9-14.4-24.9-2-2.5-3.6-5-4-5.3-7.8-15-3.9-9.6-1-19.9 2.8-10.2 18.8-17.2-0.6-0.1-3.5 4.9-3 4.8-2 15.2 0.9 10.2 12.1 26.4l-0.2 0.2q9.4 14.7 11.4 23.6z"/>
			<path id="path18" fill-rule="evenodd" class="s1" d="m112.2 56.1q1.9 8.4-1.6 16.1-3.6 7.7-6.2 10.9-1.3 1.9-2.8 3.7-9.5 11.8-11.8 19.9-2.4 8-1.6 13.4 1.5 13.5 13.5 21.8 0.2 0.2 0.4 0.3-20.5-9.6-23.5-31.2-0.9-4.7 1.2-14.5 2-9.7 13.2-25.2 0.1-0.2 0.2-0.3 0.6-0.8 1.2-1.5 9.4-14 6.4-20.7-3-6.7-4.1-6.6 13.6 5.4 15.5 13.9z"/>
			<path id="path20" fill-rule="evenodd" class="s1" d="m120.2 50.9q-0.6-0.1-5.6-3.6-5.1-3.4-8.2-9.3-3-5.9 2.3-13.3 8.3-11.7 5.5-18.2-2.8-6.4-3.9-6.5 0.4 0 4.5 2.9 4 2.8 6.5 8.7 2.5 5.9-1.5 14.9-5.8 13.4-3.1 19 2.6 5.5 3.5 5.4z"/>
			<path id="path22" fill-rule="evenodd" class="s0" d="m25.1 224.6q-10.8 0-17.9-7.6-7.2-7.6-7.2-19.1 0-11.1 7.6-18.5 7.7-7.4 19.2-7.4 10.8 0 17.9 7.6 7.2 7.6 7.2 19.1 0 11.1-7.6 18.5-7.6 7.4-19.2 7.4zm1.7-6.2q7.2 0 11.9-5.2 4.8-5.3 4.8-13.2 0-9.4-5.2-15.6-5.3-6.2-13.2-6.2-7.1 0-11.9 5.3-4.8 5.2-4.8 13.2 0 9.3 5.2 15.5 5.3 6.2 13.2 6.2zm42.8-9.4q0 4.8 0.4 8.1 0.4 3.2 1.4 6.7h-10.4q1-3.4 1.4-6.6 0.4-3.3 0.4-8.2v-28.7q-1.8-2.3-3-3.7-2.7-3.3-3.6-3.8h12.1q2.2 3.8 4.1 6.8 1.9 2.9 4.7 6.5l19.5 25.3v-23.8q0-4.8-0.4-8.1-0.4-3.2-1.4-6.7h10.4q-1 3.4-1.4 6.7-0.4 3.2-0.4 8.1v23.9q0 3.8 0.5 7.4 0.5 3.5 1.2 4.9h-10.4q-0.1-1.1-1.9-3.9-1.7-2.8-4-5.8l-19.2-25.1z"/>
			<path id="path24" fill-rule="evenodd" class="s0" d="m117.9 209l17.4-37.2 17.5 37.2q3 6.4 5 9.7 1.9 3.2 3.8 5.1h-12.7q0.4-1.5-0.4-4.8-0.7-3.2-2.3-7l-1.7-4h-18.9l-0.3 0.8q-1.9 4.5-2.9 8.9-1.1 4.3-0.6 6.1h-12.8q2.1-2.1 4-5.3 2-3.3 4.9-9.5zm17.1-22.9l-6.6 15.4h13.3z"/>
			<path id="path26" class="s0" d="m173.8 209l6.9-11.1-6.3-10.3q-3.9-6.5-6.4-9.8-2.4-3.2-4.6-5h12.8q0.4 2.3 1.8 5.5 1.5 3.2 3.4 6.3l3.7 6.1 3.8-6.1q1.9-3.1 3.4-6.5 1.5-3.4 1.7-5.3h12.3q-2 1.6-4.5 4.9-2.5 3.2-6.6 9.9l-6.1 9.8 7.1 11.6q4.2 6.8 6.5 10.1 2.4 3.2 4.2 4.7h-13.4q0.3-2-0.9-5.2-1.2-3.2-3.3-6.6l-4.6-7.5-4.6 7.5q-2 3.2-3.3 6.6-1.3 3.5-1.1 5.2h-13.1q2.1-1.7 4.6-4.9 2.4-3.3 6.6-9.9z"/>
			<path id="path28" class="s0" d="m224 225.7q0.3-1.4 0.5-2.7 0.2-1.4 0.2-3.4v-8.8q0-1.9-0.2-3.3-0.2-1.3-0.6-2.8h4.7q-0.4 1.4-0.6 2.8-0.1 1.3-0.1 3.3v12.6q2.3-0.1 3.9-0.4 2.5-0.5 4.4-1.5l-0.9 2.1-0.9 2.1zm14.7 0q0.4-1.4 0.5-2.7 0.2-1.4 0.2-3.4v-8.8q0-1.9-0.2-3.3-0.1-1.3-0.5-2.8h4.6q-0.4 1.4-0.6 2.8-0.1 1.3-0.1 3.3v12.6q2.3-0.1 4-0.4 2.4-0.5 4.3-1.5l-0.9 2.1-0.9 2.1z"/>
			<path id="path30" class="s0" d="m269.4 224.4q-1.8 1-3.2 1.3-1.3 0.3-3.2 0.3-4.5 0-7.5-2.9-2.9-3-2.9-7.4 0-4.8 3.1-8.1 3.2-3.2 8-3.2 1.5 0 2.8 0.2 1.2 0.3 2.6 0.8v3.4q-1.3-0.9-2.7-1.3-1.5-0.5-3.1-0.5-3.1 0-5.2 2.3-2.1 2.4-2.1 5.9 0 3.6 2 5.9 2 2.4 4.9 2.4 2 0 3.5-0.6 1.5-0.6 3.2-1.9z"/>
		</g>
	</g>
</svg>